<?xml version="1.0" standalone="no"?>
<!DOCTYPE svg PUBLIC "-//W3C//DTD SVG 20010904//EN"
 "http://www.w3.org/TR/2001/REC-SVG-20010904/DTD/svg10.dtd">
<svg version="1.0" xmlns="http://www.w3.org/2000/svg"
 width="241.000000pt" height="533.000000pt" viewBox="0 0 241.000000 533.000000"
 preserveAspectRatio="xMidYMid meet">
<metadata>
Created by potrace 1.15, written by Peter Selinger 2001-2017
</metadata>
<g transform="translate(0.000000,533.000000) scale(0.100000,-0.100000)"
fill="#000000" stroke="none">
<path d="M0 2665 l0 -2665 1205 0 1205 0 0 2665 0 2665 -1205 0 -1205 0 0
-2665z m1518 1751 c15 -7 47 -24 72 -36 25 -13 51 -27 58 -33 16 -13 15 -66
-2 -86 -27 -32 -86 -121 -86 -131 0 -5 -4 -10 -10 -10 -5 0 -10 -5 -10 -11 0
-6 -22 -48 -50 -95 -27 -47 -50 -89 -50 -93 0 -5 -3 -11 -7 -13 -5 -1 -19 -19
-32 -38 -14 -19 -35 -49 -48 -66 l-23 -31 58 13 c125 26 280 71 297 85 5 5 17
9 27 9 10 0 30 8 45 17 19 12 48 17 114 17 78 1 91 -2 110 -21 31 -31 19 -66
-31 -91 -22 -11 -103 -35 -179 -53 l-139 -33 39 -29 c47 -35 50 -61 14 -135
-14 -29 -25 -59 -25 -67 0 -8 -6 -32 -14 -52 -7 -21 -21 -65 -31 -98 -9 -33
-30 -89 -46 -124 l-30 -64 38 -39 c21 -22 67 -63 103 -91 36 -29 67 -55 68
-59 2 -5 8 -8 13 -8 5 0 28 -12 52 -27 60 -39 208 -110 259 -124 24 -7 47 -16
53 -21 5 -4 17 -8 26 -8 30 0 109 -39 109 -54 0 -28 -25 -33 -210 -47 -161
-11 -283 -5 -304 17 -8 8 -19 14 -25 14 -6 0 -11 5 -11 11 0 7 -6 17 -14 23
-11 9 -92 116 -152 201 -80 115 -76 110 -93 89 -45 -54 -175 -130 -271 -157
-77 -22 -142 -31 -235 -31 -72 -1 -80 1 -80 18 0 22 10 28 90 52 106 31 179
57 224 81 24 13 50 23 56 23 7 0 15 7 19 15 3 8 10 15 15 15 20 0 121 96 121
115 0 7 -8 23 -18 36 -10 13 -22 31 -25 39 -4 8 -15 27 -25 41 -9 14 -32 50
-50 80 -18 30 -38 63 -45 73 -15 25 -139 146 -149 146 -5 0 -8 14 -8 30 0 31
8 35 57 31 49 -4 143 -78 173 -138 8 -15 18 -30 21 -33 4 -3 32 -45 62 -95 30
-49 61 -90 68 -90 8 0 16 18 21 43 4 23 10 47 13 53 12 18 36 253 30 289 l-6
35 -135 -2 c-74 -1 -139 -5 -144 -8 -20 -12 -60 -15 -60 -5 0 12 29 72 39 80
21 17 111 175 111 194 0 7 5 17 12 24 12 12 21 34 74 185 34 96 43 170 24 182
-11 7 -14 68 -3 78 11 12 64 8 91 -7z m-409 -248 c58 -26 83 -51 79 -79 -4
-27 -59 -70 -65 -51 -3 6 -14 12 -25 12 -15 0 -18 -4 -13 -22 4 -13 8 -25 8
-28 0 -3 -23 -53 -52 -111 -28 -59 -55 -123 -58 -143 -5 -31 -2 -39 26 -63 69
-61 40 -75 -250 -129 l-97 -17 -5 -116 c-3 -64 -11 -163 -17 -219 -6 -57 -9
-106 -7 -109 3 -2 13 3 24 11 38 33 209 156 233 168 14 7 28 17 31 21 3 4 19
9 34 10 61 4 43 -29 -83 -157 -204 -206 -296 -306 -342 -370 -26 -35 -40 -46
-61 -46 -36 0 -64 55 -56 111 3 22 1 37 -3 34 -9 -5 -20 18 -20 41 0 8 25 40
55 70 43 44 55 63 55 88 0 54 28 178 42 187 10 7 10 9 1 9 -10 0 -13 33 -13
133 0 89 -5 145 -15 172 -18 52 -18 60 1 80 18 17 55 14 101 -10 30 -16 115
-10 186 12 39 12 51 22 67 53 11 22 20 52 20 67 0 15 7 53 15 83 15 54 21 170
9 170 -3 0 -20 -6 -37 -14 -18 -8 -63 -28 -100 -45 -83 -38 -193 -44 -239 -13
-84 55 -82 102 5 102 118 1 269 41 358 96 76 47 124 50 208 12z m439 -1818
c50 -26 102 -73 102 -92 0 -8 -12 -21 -27 -29 -16 -7 -57 -32 -93 -55 -36 -22
-78 -47 -95 -55 -16 -9 -40 -21 -52 -27 -54 -28 -64 -32 -88 -32 -14 0 -25 4
-25 10 0 10 26 44 63 82 9 10 17 23 17 28 0 6 4 10 8 10 8 0 63 103 81 153 13
34 52 36 109 7z m-669 -65 c107 -28 147 -58 161 -118 21 -97 -51 -163 -112
-104 -23 21 -87 120 -117 179 -13 26 -10 58 6 58 4 0 32 -7 62 -15z m720 -231
c67 -39 59 -82 -14 -87 -22 -1 -42 -5 -45 -9 -3 -4 -68 -13 -143 -19 -119 -11
-137 -15 -131 -28 14 -34 16 -61 5 -91 l-10 -31 72 8 c95 10 203 7 239 -8 19
-8 28 -19 28 -34 0 -30 -61 -55 -133 -55 -28 0 -87 -5 -129 -12 -74 -11 -78
-13 -78 -37 0 -14 -3 -49 -6 -76 l-6 -51 68 7 c38 4 120 12 182 19 188 21 302
2 302 -49 0 -27 -36 -39 -137 -46 -50 -4 -104 -10 -119 -14 l-28 -7 22 -15
c11 -8 25 -26 30 -40 8 -21 1 -35 -54 -109 -35 -46 -62 -86 -60 -87 3 -4 197
16 387 39 86 10 102 10 143 -6 47 -18 126 -83 126 -104 0 -25 -84 -34 -270
-28 -361 12 -655 4 -885 -24 -176 -22 -241 -31 -255 -36 -8 -4 -42 -10 -75
-15 -33 -5 -77 -11 -98 -15 -37 -6 -67 1 -136 35 -74 34 -90 64 -45 81 14 6
89 10 167 10 137 0 377 19 377 30 0 3 -19 57 -43 120 l-42 115 -93 7 c-98 6
-146 26 -140 55 5 25 43 31 291 46 125 8 231 18 235 23 4 5 6 39 4 76 l-4 67
-141 -6 c-116 -5 -149 -3 -179 10 -27 11 -38 22 -38 37 0 28 36 40 124 40 63
0 138 9 214 25 29 7 29 46 1 100 l-21 40 -123 -3 c-99 -3 -130 0 -159 13 -35
17 -53 42 -39 56 5 5 60 13 123 18 63 6 174 18 245 26 72 9 168 21 215 26 47
6 93 11 103 12 9 1 17 5 17 9 0 15 131 9 159 -8z m-44 -1067 c43 -17 112 -68
126 -94 10 -19 6 -28 -39 -80 -28 -32 -69 -94 -92 -137 -36 -68 -39 -81 -26
-88 9 -5 16 -20 16 -33 0 -23 -4 -25 -57 -27 -32 -1 -85 -3 -118 -4 -33 -2
-143 -7 -245 -10 -164 -6 -187 -9 -206 -26 -18 -16 -25 -17 -41 -7 -39 24 -52
65 -73 224 -14 101 -32 154 -68 196 -28 32 -33 45 -25 58 14 22 63 25 108 7
47 -20 159 -20 285 -1 52 8 133 15 180 16 47 1 99 5 115 9 45 12 126 10 160
-3z"/>
<path d="M1190 1415 c-58 -7 -147 -14 -199 -14 l-94 -1 45 -42 c47 -46 68 -95
68 -164 0 -39 0 -39 38 -36 20 1 95 6 166 10 l129 7 23 70 c13 39 23 95 24
128 l0 57 -47 -1 c-27 -1 -95 -7 -153 -14z"/>
<path d="M1120 879 c-52 -4 -120 -12 -150 -16 -55 -8 -55 -8 -54 -43 3 -94 20
-215 30 -213 6 1 72 5 145 8 74 3 170 11 214 16 l80 10 28 90 c16 50 27 105
25 122 l-3 32 -110 1 c-60 1 -153 -2 -205 -7z"/>
</g>
</svg>
