<?xml version="1.0" standalone="no"?>
<!DOCTYPE svg PUBLIC "-//W3C//DTD SVG 20010904//EN"
 "http://www.w3.org/TR/2001/REC-SVG-20010904/DTD/svg10.dtd">
<svg version="1.0" xmlns="http://www.w3.org/2000/svg"
 width="79.000000pt" height="90.000000pt" viewBox="0 0 79.000000 90.000000"
 preserveAspectRatio="xMidYMid meet">
<metadata>
Created by potrace 1.15, written by Peter Selinger 2001-2017
</metadata>
<g transform="translate(0.000000,90.000000) scale(0.100000,-0.100000)"
fill="#000000" stroke="none">
<path d="M458 749 c-10 -5 -55 -16 -100 -24 -62 -11 -87 -20 -97 -35 -7 -11
-20 -20 -27 -20 -35 0 11 -62 67 -90 47 -24 50 -43 9 -60 -80 -33 -166 -194
-146 -273 7 -29 130 -97 211 -116 72 -18 75 -11 75 181 0 95 4 158 10 158 22
0 32 -46 27 -126 -9 -158 9 -191 143 -263 90 -48 105 -49 31 -3 -75 46 -86 74
-83 218 3 136 -5 157 -78 194 -21 10 -40 26 -44 35 -20 54 13 120 74 145 16 7
30 16 30 20 0 8 -74 70 -81 70 -2 0 -12 -5 -21 -11z m-118 -451 c0 -120 -7
-137 -44 -120 -35 16 -42 52 -21 114 15 47 49 108 61 108 2 0 4 -46 4 -102z"/>
</g>
</svg>
